<svg enable-background="new 0 0 512 512" viewBox="0 0 512 512" xmlns="http://www.w3.org/2000/svg"><path d="m3.000005 513c-.666676-.333313-1.783675-.548035-1.909042-1.023956-.287415-1.090943-.090963-2.309388-.090963-3.476044 0-169.166656 0-338.333328 0-507.5 169.166672 0 338.333344-.002586 507.5.041366 1.500061.00039 3 .6253 4.158813 1.488268-2.153198 1.860416-3.965179 3.191198-6.237579 4.49874-166.687408-.023241-332.914368-.023241-499.421769-.023241v6.490296c0 120.471917-.005332 240.943841.002805 361.415765.002972 43.989197.037976 87.978393-.082226 132.278137-1.400405 2.143921-2.660217 3.977295-3.920039 5.810669z" fill="#fff"/><path d="m506.881653 7.051612c1.811981-1.33078 3.623962-2.661562 5.77716-4.021978.341187 168.470366.343812 336.970366.299805 505.470366-.000366 1.500061-.625244 3-1.488647 4.158813-1.860535-2.153106-3.190949-3.965087-4.498505-6.237609.024902-165.432434.027222-330.404328.024048-495.37624-.000031-1.331119-.074249-2.662235-.113861-3.993352z" fill="#f2f2f2"/><path d="m506.948639 506.881744c1.330383 1.811982 2.660797 3.623963 4.021271 5.777069-168.990815.341187-338.011704.341187-507.501245.341187.791162-1.833374 2.050974-3.666748 3.913427-5.757935 165.925937-.25241 331.249225-.246826 496.572528-.246521.998017 0 1.996003-.074249 2.994019-.1138z" fill="#e6e6e6"/><path d="m506.971466 506.421204c-1.020843.500091-2.018829.57434-3.016846.57434-165.323303-.000305-330.646591-.005889-496.431936-.064025-.482438-44.041932-.517442-88.031128-.520414-132.020325-.008137-120.471924-.002805-240.943848-.002805-361.415765 0-1.975526 0-3.951052 0-6.490296 166.507401 0 332.734361 0 499.421739.023239.500061 1.354357.574279 2.685473.57431 4.016592.003174 164.971912.000854 329.943806-.024048 495.37624m-214.065826-354.122422c-6.250428-15.377639-17.692047-25.341362-33.279755-30.038078-9.164978-2.761482-18.762924-4.702545-28.293427-5.509872-21.953689-1.859703-43.936614-1.880318-65.412185 4.275825-12.096405 3.467537-22.94841 8.999893-30.152451 19.897934-1.660415 2.51181-2.908188 5.296387-4.34584 7.955429-.306229-.067612-.612457-.135239-.918686-.202865 0-9.054841 0-18.109696 0-27.225113-27.491806 0-54.416649 0-81.594475 0v270.288437h81.754158c0-2.02118 0-3.815766 0-5.610352.000015-59.161713-.008133-118.323425.013565-177.485123.002014-5.498092.00737-11.007126.332474-16.49205.88649-14.955643 5.312042-21.241867 18.158646-23.58255 17.30223-3.152527 34.808395-3.353104 52.197265-.460358 7.792191 1.29628 12.948227 6.035721 13.848587 14.253342.796341 7.26825 1.69365 14.577759 1.709946 21.870911.135635 60.6613.07727 121.322982.077499 181.984573.000016 1.787689.000016 3.575348.000016 5.460419h81.873413c0-2.126129-.000031-3.933045-.000031-5.73999.000153-59.828309-.031647-119.656678.046539-179.484894.008454-6.478745.382508-12.985382 1.064942-19.428467 1.123504-10.607559 5.717438-16.036346 16.19339-18.145355 17.113861-3.445282 34.420929-3.574921 51.671203-1.016968 10.566071 1.566772 15.173737 6.607971 16.169037 17.131332.610596 6.455857 1.026551 12.957169 1.034851 19.438706.077362 60.494842.047425 120.989776.048554 181.48471.00003 1.933472 0 3.866944 0 5.694855h81.872833c0-2.21875 0-4.04953 0-5.88031 0-62.661407.038971-125.322906-.04776-187.984192-.011261-8.147232-.091919-16.368728-1.138672-24.426147-3.063446-23.580719-9.960113-45.351402-45.849182-53.43087-27.486115-6.187752-55.261017-5.718605-82.822418-.33902-20.188751 3.940552-35.490906 14.583961-42.634247 35.227516-.611694-.800003-.997986-1.305206-1.577789-2.481415z" fill="#1c3b63"/><path d="m293.002411 152.634277c.483032.840714.869324 1.345917 1.481018 2.14592 7.143341-20.643555 22.445496-31.286964 42.634247-35.227516 27.561401-5.379585 55.336303-5.848732 82.822418.33902 35.889069 8.079468 42.785736 29.850151 45.849182 53.43087 1.046753 8.057419 1.127411 16.278915 1.138672 24.426147.086731 62.661286.04776 125.322785.04776 187.984192v5.88031c-27.151459 0-54.200439 0-81.872833 0 0-1.827911.00003-3.761383 0-5.694855-.001129-60.494934.028808-120.989868-.048554-181.48471-.0083-6.481537-.424255-12.982849-1.034851-19.438706-.9953-10.523361-5.602966-15.56456-16.169037-17.131332-17.250274-2.557953-34.557342-2.428314-51.671203 1.016968-10.475952 2.109009-15.069886 7.537796-16.19339 18.145355-.682434 6.443085-1.056488 12.949722-1.064942 19.428467-.078186 59.828216-.046386 119.656585-.046539 179.484894 0 1.806945.000031 3.613861.000031 5.73999-27.347138 0-54.392136 0-81.873413 0 0-1.885071 0-3.67273-.000016-5.460419-.000229-60.661591.058136-121.323273-.077499-181.984573-.016296-7.293152-.913605-14.602661-1.709946-21.870911-.90036-8.217621-6.056396-12.957062-13.848587-14.253342-17.38887-2.892746-34.895035-2.692169-52.197265.460358-12.846604 2.340683-17.272156 8.626907-18.158646 23.58255-.325104 5.484924-.33046 10.993958-.332474 16.49205-.021698 59.161698-.01355 118.32341-.013565 177.485123v5.610352c-27.532669 0-54.599151 0-81.754158 0 0-90.180146 0-180.099228 0-270.288437h81.594475v27.225113c.306229.067626.612457.135253.918686.202865 1.437652-2.659042 2.685425-5.443619 4.34584-7.955429 7.204041-10.898041 18.056046-16.430397 30.152451-19.897934 21.475571-6.156143 43.458496-6.135528 65.412185-4.275825 9.530503.807327 19.128449 2.74839 28.293427 5.509872 15.587708 4.696716 27.029327 14.660439 33.376526 30.373573z" fill="#fefefe"/></svg>
